PathFileType	4	(X/Y/Z)	69_2_76_p0_0-238_filt_butterworth.trc
DataRate	CameraRate	NumFrames	NumMarkers	Units	OrigDataRate	OrigDataStartFrame	OrigNumFrames
60.0	60.0	7	27	m	60.0	208	238
Frame#	Time	RHip			RKnee			RAnkle			RBigToe			RSmallToe			RHeel			LHip			LKnee			LAnkle			LBigToe			LSmallToe			LHeel			Neck			Head			Nose			RShoulder			RElbow			RWrist			RThumb			RIndex			RPinky			LShoulder			LElbow			LWrist			LThumb			LIndex			LPinky			
		X1	Y1	Z1	X2	Y2	Z2	X3	Y3	Z3	X4	Y4	Z4	X5	Y5	Z5	X6	Y6	Z6	X7	Y7	Z7	X8	Y8	Z8	X9	Y9	Z9	X10	Y10	Z10	X11	Y11	Z11	X12	Y12	Z12	X13	Y13	Z13	X14	Y14	Z14	X15	Y15	Z15	X16	Y16	Z16	X17	Y17	Z17	X18	Y18	Z18	X19	Y19	Z19	X20	Y20	Z20	X21	Y21	Z21	X22	Y22	Z22	X23	Y23	Z23	X24	Y24	Z24	X25	Y25	Z25	X26	Y26	Z26	X27	Y27	Z27	
208	3.466666666666667	0.2906875086155366	0.9091616275229208	0.587454027002354	0.24562174195142578	0.46662784163736243	0.5957185472958301	0.23015660454497805	0.051129254441438926	0.6144267936114743	0.24572260323695339	0.018864778009245187	0.4841650575610106	0.31776541849428597	0.04817144695315083	0.48193980323278524	0.18352846473828158	-0.007254836008055526	0.6777433369979928	0.11372442230838238	0.9181509329354691	0.5070407990542424	0.05502562583520658	0.480979228403766	0.5381969253924919	0.036940387670933834	0.055580007539716585	0.5717194185967547	0.11308942755340197	0.04895449024842609	0.4175072940229965	0.04795482961517353	0.052384346995789983	0.4353181348395075	0.038959913045164635	0.006863034674456127	0.5929864865651365	0.20521576641096795	1.3995517188632987	0.5670446095271354	0.24721011835987994	1.6428470987506618	0.5220240418036802	0.25686155011966594	1.5229811721076294	0.48430288991116	0.3521708389376661	1.3120632643788004	0.5799466300959062	0.36685861326948943	1.0615449518143374	0.5770864312288851	0.35748192427642256	0.8296394696720394	0.49816374739504665	0.34213622608042743	0.7328638234049555	0.44035467032713926	0.3564795700601969	0.7097594169514881	0.43862248593188435	0.37498469138149204	0.6967634819927301	0.5248640913588103	0.056449540189544525	1.3273585310184246	0.5151094654147835	0.05299214332807153	1.0749743891543564	0.44177249904365307	0.08651329467150722	0.88291965093153	0.3560683859618405	0.1269927273316306	0.7912111330144256	0.32223652892719745	0.1076881733144523	0.7918759779703413	0.25503826789114326	0.04640852236298411	0.7883465821901035	0.30899136390291587	
209	3.4833333333333334	0.28921808500348667	0.9082338201438483	0.5894784828180346	0.24557190272766855	0.46355460959470485	0.5975760798072197	0.2298789848435911	0.05056165247417146	0.6154551338785899	0.2457124807786299	0.018726141353954902	0.48417535113259064	0.31777173464797825	0.04846685073771064	0.48202740349930195	0.1831584845347128	-0.00775480043778891	0.6785029369454855	0.11344355058613749	0.9175646485174617	0.5075966071217463	0.05382832887547392	0.4807148617840412	0.5399373405581457	0.03666741471328912	0.05532312107730779	0.571296098143233	0.11306925367793984	0.04787564306763079	0.418085458848143	0.04807573172265325	0.0523743383434899	0.43529289795424997	0.03872793998855801	0.006887522666950297	0.5928643051270814	0.20520576662253848	1.400096275767398	0.5670902340472673	0.24595320897016365	1.643037519007799	0.5235585789349703	0.25647276284194553	1.5220335299471521	0.48902281047846796	0.35164502978006484	1.3128611450155578	0.5791805421194469	0.3657776564073484	1.0630913704421963	0.5735754737787997	0.3571190981132132	0.8342416548558059	0.48711240433803416	0.3369708386596417	0.7349089933959793	0.434571136844676	0.35107610806474615	0.7115952047917615	0.4344972575746823	0.3664261937337979	0.69718785521328	0.519977759106127	0.05698478446343344	1.3287852001555875	0.512675340245642	0.05329987700699074	1.076680753462784	0.4447635402078103	0.09900865996798813	0.8893813208318193	0.3518649905140219	0.13322295922809407	0.7955500995413782	0.3244618027934888	0.1167472060325845	0.7941315200511756	0.2547963856325246	0.057313983393457266	0.7958130021104649	0.29975807429937185	
210	3.5	0.28756866475282833	0.9068193169763544	0.5916743291945756	0.24538411036727534	0.4603693911622161	0.5996070806237993	0.2293358023458357	0.04981291735592189	0.61675734493323	0.24576091072231626	0.01896969584616731	0.48415379194784813	0.3178905247567777	0.048802063462944044	0.4819161499360781	0.18263457386935952	-0.008599932634428898	0.6798343772598513	0.11301614716771674	0.9164149477216125	0.5082875429541311	0.052359672478257395	0.48011077269773983	0.5419552724021002	0.03641859047798121	0.05510203622412412	0.5708656188178303	0.11293825717372391	0.047194138755566516	0.418706592085305	0.048198430526257025	0.05255853691319464	0.43507542065462906	0.03851531698261217	0.006815346152364267	0.5927297807893743	0.20516619282420961	1.4003775734874162	0.5671472157249465	0.2443711553156549	1.6430291505032326	0.5253454705673749	0.25612051533375	1.5209323134873696	0.4935095388189656	0.3509739339586393	1.3136344187681008	0.578623876760414	0.36418497292279484	1.064363344800866	0.5702409893256881	0.35679922384664453	0.8393885241861287	0.47580086179131625	0.3318345506934897	0.7380047836974514	0.4259869418201052	0.34571403515894894	0.7145844711347602	0.4287572642736184	0.36048184751210266	0.6999091534766806	0.508757893768351	0.05733096758319835	1.3297817753196763	0.510810397537812	0.0532606930563146	1.0782726363793427	0.4479081017499389	0.11013982961427222	0.8957204876255623	0.3490341110775715	0.1419144478272905	0.8019357575651418	0.32332065811805244	0.12660231807855202	0.7962065075968014	0.25730810120099956	0.07141067705597948	0.8028572733380406	0.2895117600483967	
211	3.5166666666666666	0.2857394650663976	0.9048755011566837	0.594107761830381	0.24503989399175857	0.45736686417644873	0.60166222341899	0.22857850547272762	0.0488753579771218	0.6183256390528761	0.24590377676389075	0.019785097077693464	0.4841101945402712	0.3180409249928592	0.049223049169643006	0.48193247052720406	0.18194024866342334	-0.009872823580675979	0.6818816744131603	0.11240767313858425	0.914613583072185	0.5091781775305884	0.05072405134559437	0.4791801451260048	0.5441046744794479	0.036218590622479875	0.054916981934628156	0.5704710036657187	0.11273966565434543	0.04726725639174595	0.4194039377688722	0.04821856547478118	0.05295047469117775	0.4346203654162124	0.03831855469537041	0.006613518672431859	0.5925772882977691	0.20513316495506262	1.400428828088281	0.5671673685013424	0.24268559778431323	1.6429034704293066	0.5273263189207924	0.2558623833743324	1.519945261800603	0.49696284327896345	0.35030621457402933	1.314290093879516	0.5782794666972874	0.36235990845578425	1.0652490775731567	0.5675212346995512	0.35577283590102954	0.8439773572797654	0.4663383484971055	0.3274124229993546	0.7421409189299586	0.4149901856754923	0.3405653615415398	0.7188944320513548	0.42121947877896615	0.35643490573162456	0.7041191169540121	0.4933939664356266	0.05737914453666855	1.330184559380526	0.5098496112718989	0.05284860293946424	1.0795190571055506	0.4508687458700794	0.11928085830406865	0.9013580926863198	0.34750155776186276	0.15333239154217665	0.8104998111625714	0.31824316859072627	0.1379599830412401	0.7988654786160829	0.26091901275574303	0.08696207885396384	0.8080546395835541	0.2810067364580912	
212	3.533333333333333	0.2837922994345644	0.902455041742595	0.5966946744036794	0.2445873174754965	0.454833248165256	0.6035177534304803	0.22768379825767285	0.04770156829832889	0.620213207549001	0.24613500923160997	0.021138876493884268	0.4840592469040637	0.3179802856441248	0.0495499389676876	0.48255465372253886	0.18100919745031818	-0.011604513627643288	0.6846849079054375	0.11161923207470371	0.9122993246692424	0.5103380061609843	0.04909715745638201	0.47808531973935436	0.546158989813945	0.03606600122856687	0.054752727694011016	0.5701331110166121	0.11259321518709964	0.048157133742918204	0.41993261825666695	0.04837205288649056	0.0535464673896192	0.4338672770314149	0.038121840218298085	0.0062823212447706556	0.5924245331871355	0.20511408546632304	1.400347806651852	0.5671549554314202	0.2410986374892578	1.6427516933181419	0.5296305594939469	0.2557158428021825	1.5192096058605578	0.4990578259478344	0.34976807329644555	1.3147552414686896	0.578167945925761	0.36060228749581413	1.0657659276116056	0.5657236421243927	0.3536853421702556	0.8473245360988152	0.4597006770617918	0.32377420690048664	0.7470898585165725	0.4032056313309458	0.33524745871597095	0.7239520958036219	0.412487579570774	0.35205044520039885	0.7085228877411024	0.4777017082506996	0.05712785061877925	1.3301152773378047	0.5097936198113692	0.05233815634927176	1.0804557494542246	0.4531125488304693	0.1264057098960666	0.9059461681274151	0.34669252764414693	0.1668226850467019	0.8204030593458294	0.3104299283944714	0.15083503367882783	0.8024561059029593	0.26434590644083195	0.1022030906858821	0.8108131763720139	0.27665354581174934	
213	3.55	0.28181938958801656	0.8997059311354164	0.5991849812634803	0.24407237638741913	0.45285167081985345	0.6050186208297745	0.22671638242511627	0.046247485075308986	0.6224922167522707	0.24640624548190856	0.022835564966630497	0.48403924118035885	0.3174467021622828	0.049510418347513435	0.4840309769223985	0.17978904874505922	-0.013679441253721834	0.6880407943727664	0.11063307659692401	0.9097696625154628	0.5118439807930598	0.04763451055820013	0.4771055861501168	0.5479242664286494	0.03594853889705908	0.054604538560837815	0.5698520138220943	0.11259505848635509	0.049622261551107674	0.4198707624808139	0.04897015587393802	0.05436284481688214	0.4327332523708389	0.03792229482755609	0.005904787097508048	0.5922975168810221	0.20510798391920435	1.4002503635876855	0.567133775709391	0.2398040193350235	1.6426252169547013	0.5322760816684496	0.25566434511422276	1.51875988123126	0.4999183927579602	0.3494388866950386	1.3149778267636496	0.578303189388049	0.3591253474598215	1.066081859911917	0.5648080680576705	0.3505742262418274	0.8495674206442061	0.4554876101195941	0.31995177853362544	0.7521992217768696	0.39266217579187657	0.3287713124283922	0.7285019902427555	0.4041020813231503	0.34494199961184413	0.71202103409491	0.46552667555164706	0.056820753178297684	1.3299134355737696	0.510105504757874	0.05222324248341195	1.0812698080589693	0.4540422291872965	0.13186633265532324	0.9093230760478275	0.34607981189895815	0.18139182665562237	0.8303229245975864	0.301680781690871	0.16470382786767612	0.8071545395706655	0.2667807208403481	0.11637312905268801	0.8116251094419419	0.2769977334712172	
214	3.566666666666667	0.27991470592784534	0.8968345577928429	0.6013058188904649	0.2435066446181112	0.4513446792235498	0.6061590573734923	0.22572355582945497	0.044574616241100234	0.6251141179415074	0.24665239574661496	0.024628941078232124	0.4840998342618685	0.3163543398679615	0.04899861894787262	0.48621727331513	0.17833000945131677	-0.015858496761629825	0.6915552184931313	0.10940758142596858	0.9072626764757546	0.5137139881622803	0.04641401079798501	0.4764612599108203	0.5493275702448592	0.03585796717023278	0.054475105092785955	0.5696254970538953	0.11276915943553362	0.051481261543803815	0.41896362579102353	0.0500760452124654	0.055608147753519514	0.43087917987980445	0.03774294826363459	0.0055836165144468805	0.5922126120555089	0.20511322244902325	1.4001969354195163	0.5671192867586314	0.2389664147947856	1.642528007710186	0.5350218092648911	0.2556719924396731	1.5185913997112372	0.4999635567881473	0.3493265111343843	1.3149769841510612	0.5786108488356752	0.35803039098336814	1.066297426325538	0.5645204002359214	0.34677435908294063	0.8513846527669711	0.45272463922771117	0.314357729974387	0.7566455435358301	0.38492791472334564	0.32007445275209423	0.7313953046339331	0.3977079622376204	0.33428105784172046	0.714056661467034	0.45903838522839696	0.056906007288520036	1.3298596903968185	0.5100484263725298	0.05288900286785533	1.0820618444743433	0.4534485309668571	0.13614040846421582	0.9115738283953677	0.34551188678112854	0.1959024384825923	0.8390349774672643	0.2938034286403402	0.17870924182847592	0.8130483490853865	0.26801918006750913	0.12969143711310088	0.8117935114405745	0.28067060878717515	
